<svg width="18" height="12" viewBox="0 0 18 12" fill="none" xmlns="http://www.w3.org/2000/svg">
<path fill-rule="evenodd" clip-rule="evenodd" d="M11.7529 1.33327C12.12 0.920667 12.7521 0.88379 13.1647 1.25091L17.6647 5.25478C17.8781 5.44459 18.0001 5.71655 18 6.0021C17.9999 6.28765 17.8778 6.55955 17.6644 6.74927L13.1644 10.7494C12.7516 11.1164 12.1195 11.0792 11.7526 10.6664C11.3857 10.2537 11.4228 9.62159 11.8356 9.25466L14.3702 7.00157L0.999884 7.00001C0.447599 6.99995 -6.42469e-05 6.55218 6.91597e-09 5.99989C6.42607e-05 5.44761 0.447832 4.99995 1.00012 5.00001L14.3714 5.00157L11.8353 2.74509C11.4227 2.37797 11.3858 1.74588 11.7529 1.33327Z" fill="#332200"/>
</svg>
